<svg xmlns="http://www.w3.org/2000/svg" viewBox="0 0 1128 630">
    <path d="M948,501 L948,629 L961,629 L961,502 L960,501 Z M164,501 L163,502 L163,629 L176,629 L176,501 Z M1055,429 L1054,430 L1054,435 L1055,435 L1056,436 L1058,436 L1059,437 L1059,466 L1057,468 L1055,468 L1054,469 L1054,473 L1056,475 L1065,475 L1066,474 L1075,474 L1076,473 L1083,473 L1084,472 L1085,472 L1086,471 L1087,471 L1088,470 L1089,470 L1093,466 L1093,465 L1094,464 L1094,462 L1095,461 L1095,458 L1096,457 L1096,445 L1095,444 L1095,439 L1094,438 L1094,437 L1089,432 L1088,432 L1087,431 L1086,431 L1085,430 L1081,430 L1080,429 Z M1069,436 L1081,436 L1086,441 L1086,443 L1087,444 L1087,458 L1086,459 L1086,461 L1080,467 L1078,467 L1077,468 L1069,468 L1068,467 L1068,466 L1067,465 L1067,438 Z M842,429 L842,440 L843,441 L847,441 L848,440 L848,437 L849,436 L850,436 L851,435 L852,436 L856,436 L857,437 L857,466 L855,468 L851,468 L851,469 L850,470 L850,472 L851,473 L851,474 L852,474 L853,475 L868,475 L869,474 L870,474 L870,469 L869,468 L867,468 L865,466 L865,437 L866,436 L873,436 L874,437 L874,440 L875,441 L879,441 L880,440 L880,429 Z M714,429 L714,435 L716,435 L717,436 L718,436 L719,437 L719,466 L717,468 L715,468 L714,469 L714,474 L715,474 L716,475 L731,475 L732,474 L733,474 L734,473 L734,469 L733,468 L730,468 L728,466 L728,460 L730,458 L733,458 L734,457 L742,457 L743,456 L744,456 L745,455 L747,455 L750,452 L750,450 L751,449 L751,446 L752,445 L752,441 L751,440 L751,437 L750,436 L750,435 L749,434 L749,433 L748,433 L746,431 L745,431 L744,430 L741,430 L740,429 Z M728,437 L729,436 L739,436 L742,439 L742,440 L743,441 L743,445 L742,446 L742,448 L740,450 L739,450 L738,451 L732,451 L731,452 L729,452 L728,451 Z M551,429 L551,433 L550,434 L551,435 L552,435 L553,436 L554,436 L555,437 L555,438 L556,439 L556,465 L553,468 L551,468 L551,474 L552,474 L553,475 L568,475 L569,474 L569,468 L565,468 L563,466 L563,446 L565,444 L567,446 L567,447 L568,448 L568,449 L570,451 L570,453 L572,455 L572,456 L573,457 L573,458 L574,459 L574,460 L576,462 L576,463 L578,465 L578,466 L579,467 L579,469 L581,471 L581,472 L582,473 L582,474 L584,474 L585,475 L589,475 L590,474 L591,474 L591,437 L592,436 L593,436 L594,435 L596,435 L596,429 L578,429 L578,435 L580,435 L581,436 L582,436 L583,437 L583,454 L582,455 L579,452 L579,451 L577,449 L577,448 L576,447 L576,446 L575,445 L575,444 L573,442 L573,440 L571,438 L571,437 L569,435 L569,434 L567,432 L567,431 L566,430 L566,429 Z M440,429 L440,435 L441,435 L442,436 L444,436 L445,437 L445,466 L443,468 L441,468 L440,469 L440,473 L441,474 L442,474 L443,475 L457,475 L459,473 L459,470 L458,469 L458,468 L456,468 L453,465 L453,464 L454,463 L454,442 L453,441 L453,439 L454,438 L454,437 L455,436 L457,436 L459,434 L459,430 L458,429 Z M380,429 L379,430 L379,440 L380,441 L384,441 L385,440 L385,437 L386,436 L388,436 L389,435 L390,436 L392,436 L393,437 L393,466 L391,468 L389,468 L389,469 L388,470 L388,472 L389,473 L389,474 L390,474 L391,475 L406,475 L407,474 L408,474 L408,468 L404,468 L402,466 L402,437 L403,436 L409,436 L411,438 L411,441 L417,441 L417,429 Z M334,429 L333,430 L333,431 L332,432 L332,434 L331,435 L331,437 L330,438 L330,440 L329,441 L329,443 L328,444 L328,445 L327,446 L327,447 L326,448 L326,451 L325,452 L325,453 L324,454 L324,456 L323,457 L323,458 L322,459 L322,460 L321,461 L321,463 L320,464 L320,465 L319,466 L319,467 L318,468 L315,468 L315,474 L316,475 L330,475 L331,474 L332,474 L333,473 L333,469 L332,468 L331,468 L329,466 L329,464 L330,463 L330,462 L331,461 L332,461 L333,460 L343,460 L344,461 L345,461 L346,462 L346,464 L347,465 L347,467 L346,468 L344,468 L343,469 L343,473 L345,475 L359,475 L361,473 L361,469 L360,468 L358,468 L357,467 L357,466 L356,465 L356,463 L355,462 L355,461 L354,460 L354,458 L353,457 L353,455 L352,454 L352,452 L351,451 L351,449 L350,448 L350,446 L349,445 L349,444 L348,443 L348,441 L347,440 L347,438 L345,436 L345,433 L344,432 L344,430 L343,429 Z M338,441 L339,441 L340,442 L340,446 L341,447 L341,448 L342,449 L342,453 L341,454 L335,454 L333,452 L333,451 L334,450 L334,448 L335,447 L335,446 L336,445 L336,443 Z M251,429 L251,435 L252,435 L253,436 L255,436 L256,437 L256,438 L257,439 L257,441 L258,442 L258,443 L259,444 L259,446 L260,447 L260,449 L261,450 L261,452 L262,453 L262,455 L263,456 L263,458 L264,459 L264,460 L265,461 L265,464 L267,466 L267,468 L268,469 L268,471 L269,472 L269,473 L270,474 L271,474 L272,475 L277,475 L278,474 L279,474 L280,473 L280,470 L281,469 L281,468 L282,467 L282,465 L283,464 L283,463 L284,462 L284,459 L285,458 L285,457 L286,456 L286,454 L287,453 L287,452 L288,451 L288,450 L289,449 L289,446 L291,444 L291,441 L292,440 L292,438 L294,436 L296,436 L298,434 L298,432 L297,431 L297,429 L279,429 L279,435 L281,435 L282,436 L283,436 L284,437 L284,438 L283,439 L283,440 L282,441 L282,444 L281,445 L281,446 L280,447 L280,449 L279,450 L279,453 L278,454 L278,455 L277,456 L277,458 L276,459 L276,461 L275,462 L273,460 L273,459 L272,458 L272,455 L271,454 L271,453 L270,452 L270,449 L269,448 L269,447 L268,446 L268,444 L267,443 L267,441 L266,440 L266,437 L268,435 L270,435 L270,429 Z M118,429 L117,430 L117,434 L119,436 L121,436 L122,437 L122,439 L123,440 L123,465 L120,468 L118,468 L118,469 L117,470 L117,472 L118,473 L118,474 L119,475 L133,475 L134,474 L135,474 L136,473 L136,469 L135,468 L133,468 L131,466 L131,446 L132,445 L134,447 L134,448 L136,450 L136,451 L138,453 L138,454 L139,455 L139,456 L140,457 L140,458 L141,459 L141,460 L142,461 L142,462 L143,463 L143,464 L144,465 L144,466 L147,469 L147,470 L148,471 L148,472 L151,475 L157,475 L159,473 L159,437 L160,436 L162,436 L164,434 L164,430 L163,429 L146,429 L146,435 L147,435 L148,436 L149,436 L150,437 L150,455 L149,456 L148,455 L148,454 L145,451 L145,450 L144,449 L144,447 L141,444 L141,443 L139,441 L139,440 L138,439 L138,438 L137,437 L137,436 L136,435 L136,434 L134,432 L134,431 L132,429 Z M49,429 L48,430 L48,434 L49,435 L50,435 L51,436 L52,436 L54,438 L54,465 L51,468 L49,468 L48,469 L48,473 L50,475 L65,475 L67,473 L67,469 L66,468 L63,468 L61,466 L61,446 L62,445 L63,445 L65,447 L65,448 L66,449 L66,450 L67,451 L67,452 L69,454 L69,455 L70,456 L70,457 L71,458 L71,459 L72,460 L72,461 L74,463 L74,464 L75,465 L75,466 L77,468 L77,469 L78,470 L78,471 L79,472 L79,473 L80,474 L81,474 L82,475 L87,475 L88,474 L88,438 L90,436 L91,436 L92,435 L93,435 L94,434 L94,430 L93,429 L76,429 L75,430 L75,433 L76,434 L76,435 L77,435 L78,436 L80,436 L81,437 L81,453 L80,454 L79,454 L75,450 L75,449 L74,448 L74,447 L73,446 L73,445 L72,444 L72,443 L71,442 L71,441 L69,439 L69,438 L67,436 L67,435 L66,434 L66,433 L65,432 L65,431 L63,429 Z M5,429 L5,435 L6,435 L7,436 L9,436 L10,437 L10,466 L8,468 L6,468 L5,469 L5,473 L6,473 L7,474 L21,474 L22,473 L23,473 L23,468 L20,468 L18,466 L18,438 L20,436 L21,436 L22,435 L23,435 L23,429 Z M1028,428 L1027,429 L992,429 L992,441 L996,441 L997,440 L997,437 L998,436 L1004,436 L1005,437 L1005,467 L1004,468 L1002,468 L1001,469 L1001,474 L1002,474 L1003,475 L1019,475 L1020,474 L1020,469 L1019,468 L1016,468 L1014,466 L1014,437 L1015,436 L1022,436 L1023,437 L1023,441 L1029,441 L1029,439 L1030,438 L1030,430 Z M941,429 L941,435 L942,435 L943,436 L945,436 L946,437 L946,466 L944,468 L942,468 L941,469 L941,473 L943,475 L972,475 L973,474 L974,474 L975,473 L975,465 L976,464 L975,463 L970,463 L969,464 L969,466 L968,467 L967,467 L966,468 L956,468 L955,467 L955,437 L956,436 L957,436 L958,435 L959,435 L959,429 L958,429 L957,428 L956,429 Z M773,429 L773,435 L774,435 L775,436 L777,436 L778,437 L778,438 L779,439 L779,441 L780,442 L780,444 L781,445 L781,446 L782,447 L782,449 L783,450 L783,454 L785,456 L785,459 L786,460 L786,461 L787,462 L787,463 L788,464 L788,466 L789,467 L789,469 L790,470 L790,472 L791,473 L791,474 L793,474 L794,475 L800,475 L801,474 L801,472 L802,471 L802,470 L803,469 L803,467 L804,466 L804,464 L805,463 L805,462 L806,461 L806,459 L807,458 L807,456 L808,455 L808,454 L809,453 L809,451 L810,450 L810,449 L811,448 L811,446 L812,445 L812,443 L813,442 L813,439 L816,436 L817,436 L818,435 L820,435 L820,429 L801,429 L800,430 L800,434 L801,435 L802,435 L803,436 L804,436 L805,437 L805,440 L804,441 L804,444 L802,446 L802,449 L801,450 L801,451 L800,452 L800,455 L799,456 L799,458 L798,459 L798,460 L797,461 L796,461 L795,460 L795,459 L794,458 L794,456 L793,455 L793,453 L792,452 L792,449 L791,448 L791,447 L790,446 L790,444 L789,443 L789,442 L788,441 L788,438 L787,437 L788,436 L790,436 L791,435 L792,435 L792,429 L791,429 L790,428 L789,429 Z M633,428 L632,429 L629,429 L627,431 L626,431 L624,433 L624,434 L622,436 L622,446 L624,448 L624,449 L626,451 L627,451 L629,453 L631,453 L632,454 L634,454 L635,455 L637,455 L638,456 L640,456 L641,457 L642,457 L644,459 L644,460 L645,461 L645,462 L644,463 L644,465 L642,467 L641,467 L640,468 L630,468 L627,465 L627,461 L626,460 L622,460 L621,461 L621,470 L622,471 L622,473 L624,473 L625,474 L628,474 L629,475 L641,475 L642,474 L645,474 L646,473 L647,473 L652,468 L652,467 L653,466 L653,465 L654,464 L654,458 L653,457 L653,456 L652,455 L652,454 L649,451 L648,451 L647,450 L646,450 L645,449 L643,449 L642,448 L640,448 L639,447 L638,447 L637,446 L635,446 L634,445 L633,445 L631,443 L631,442 L630,441 L631,440 L631,438 L633,436 L644,436 L645,437 L645,440 L647,442 L651,442 L652,441 L652,430 L651,429 L647,429 L646,428 Z M498,428 L496,430 L494,430 L492,432 L491,432 L489,434 L489,435 L487,437 L487,438 L486,439 L486,441 L485,442 L485,444 L484,445 L484,459 L485,460 L485,462 L486,463 L486,464 L487,465 L487,466 L488,467 L488,468 L489,469 L489,470 L490,471 L491,471 L492,472 L493,472 L494,473 L495,473 L496,474 L497,474 L498,475 L510,475 L511,474 L513,474 L514,473 L516,473 L517,472 L518,472 L521,469 L521,468 L523,466 L523,464 L524,463 L524,462 L525,461 L525,440 L524,439 L524,438 L523,437 L523,436 L522,435 L522,434 L520,432 L519,432 L517,430 L516,430 L515,429 L513,429 L512,428 Z M509,435 L510,436 L511,436 L515,440 L515,441 L516,442 L516,443 L517,444 L517,458 L516,459 L516,461 L514,463 L514,464 L513,465 L512,465 L509,468 L501,468 L500,467 L499,467 L496,464 L496,463 L494,461 L494,458 L493,457 L493,446 L494,445 L494,442 L495,441 L495,440 L498,437 L499,437 L500,436 L508,436 Z M196,431 L192,435 L192,436 L191,437 L191,438 L190,439 L190,441 L189,442 L189,443 L188,444 L188,459 L189,460 L189,462 L190,463 L190,464 L191,465 L191,466 L192,467 L192,468 L193,469 L193,470 L195,472 L197,472 L198,473 L199,473 L200,474 L202,474 L203,475 L213,475 L214,474 L217,474 L218,473 L220,473 L226,467 L226,466 L228,464 L228,461 L229,460 L229,458 L230,457 L230,444 L229,443 L229,441 L228,440 L228,438 L227,437 L227,436 L226,435 L226,434 L225,433 L224,433 L221,430 L220,430 L219,429 L218,429 L217,428 L203,428 L202,429 L200,429 L199,430 L198,430 L197,431 Z M204,436 L215,436 L219,440 L219,442 L221,444 L221,457 L220,458 L220,459 L219,460 L219,462 L213,468 L205,468 L204,467 L203,467 L199,463 L199,462 L198,461 L198,459 L197,458 L197,445 L198,444 L198,442 L199,441 L199,440 L202,437 L203,437 Z M566,245 L566,284 L690,284 L690,245 L689,244 L567,244 Z M844,155 L843,156 L843,372 L844,373 L881,373 L882,372 L882,157 L880,155 Z M707,155 L524,155 L523,156 L521,156 L519,158 L518,158 L513,163 L513,164 L511,167 L511,170 L510,171 L510,173 L509,174 L509,372 L510,373 L548,373 L548,372 L549,371 L549,196 L550,195 L707,195 L709,193 L709,157 Z M246,155 L244,157 L244,371 L245,373 L283,373 L284,372 L284,286 L286,284 L422,284 L424,286 L424,372 L425,373 L462,373 L463,371 L463,157 L461,155 L425,155 L424,156 L424,242 L422,244 L285,244 L284,243 L284,156 L283,155 Z M197,155 L161,155 L160,156 L160,319 L158,322 L158,325 L157,326 L157,327 L153,331 L152,331 L150,333 L0,333 L0,373 L150,373 L151,372 L158,372 L161,370 L164,370 L165,369 L168,368 L170,366 L172,366 L174,364 L175,364 L177,362 L178,362 L186,355 L186,354 L191,348 L191,347 L194,342 L194,340 L197,335 L197,331 L198,330 L198,156 Z M1126,0 L1126,153 L1124,155 L913,155 L911,157 L911,192 L913,195 L999,196 L1000,373 L1037,373 L1038,371 L1038,196 L1124,195 L1126,197 L1127,629 Z M948,0 L948,128 L960,128 L960,127 L961,126 L961,0 Z M163,0 L163,127 L164,128 L175,128 L176,127 L176,0 Z" fill="#2988BC" fill-rule="evenodd"/>
</svg>